<svg width="13" height="12" viewBox="0 0 13 12" fill="none" xmlns="http://www.w3.org/2000/svg">
<path d="M6.00318 0.00634184C6.18597 -0.018974 6.37818 0.0310066 6.52579 0.16459L11.7939 4.93255C12.0576 5.1712 12.079 5.57803 11.8418 5.84297C11.6027 6.10982 11.1921 6.13123 10.9265 5.89083L10.4996 5.504V10.9997C10.4991 11.5517 10.0514 11.9999 9.49929 12H2.4758C1.92386 11.9997 1.47597 11.5516 1.47552 10.9997V5.53233L1.0799 5.89083C0.814265 6.13118 0.40363 6.1098 0.164598 5.84297C-0.0723764 5.57807 -0.0510117 5.17115 0.212463 4.93255L5.48155 0.16459C5.62901 0.0312086 5.82058 -0.0188129 6.00318 0.00634184ZM2.76495 4.36598V10.7037H9.21015V4.33668L6.00318 1.43448L2.76495 4.36598Z" fill="#5F6368"/>
</svg>
