<svg width="15" height="15" viewBox="0 0 15 15" fill="none" xmlns="http://www.w3.org/2000/svg">
<g clip-path="url(#clip0_1_351)">
<path d="M7.5 15C3.36433 15 0 11.6357 0 7.5C0 3.36433 3.36433 0 7.5 0C11.6357 0 15 3.36433 15 7.5C15 11.6357 11.6357 15 7.5 15ZM7.5 0.916875C3.86886 0.916875 0.916875 3.86886 0.916875 7.5C0.916875 11.1311 3.86886 14.0831 7.5 14.0831C11.1311 14.0831 14.0831 11.1311 14.0831 7.5C14.0831 3.86886 11.1311 0.916875 7.5 0.916875Z" fill="#5A3729"/>
<path d="M14.5416 7.04398H0.458496V7.96085H14.5416V7.04398Z" fill="#5A3729"/>
<path d="M7.95838 0.458435H7.0415V14.5416H7.95838V0.458435Z" fill="#5A3729"/>
<path d="M7.49991 15C5.10584 15 3.62378 11.1069 3.62378 7.50242C3.62378 3.87855 5.18102 0 7.49991 0V0.916875C6.13187 0.916875 4.54065 3.79365 4.54065 7.50242C4.54065 10.9468 5.94994 14.0831 7.49991 14.0831V15Z" fill="#5A3729"/>
<path d="M7.5 15V14.0831C9.04997 14.0831 10.4593 10.9468 10.4593 7.50244C10.4593 3.79367 8.86804 0.916875 7.5 0.916875V0C9.81889 0 11.3761 3.87855 11.3761 7.50242C11.3761 11.1069 9.89408 15 7.5 15Z" fill="#5A3729"/>
<path d="M7.49994 4.76149C3.91247 4.76149 1.69787 3.85431 1.60327 3.8155L1.95498 2.97139C1.97681 2.97866 4.11135 3.84461 7.49994 3.84461C11.0753 3.84461 13.0109 2.98594 13.0303 2.97625L13.4112 3.80824C13.3263 3.84703 11.296 4.76149 7.49994 4.76149Z" fill="#5A3729"/>
<path d="M13.045 12.0213C13.0232 12.0141 10.8911 11.1505 7.50009 11.1505C3.92472 11.1505 1.98909 12.0068 1.96968 12.0165L1.58887 11.1821C1.67377 11.1457 3.704 10.2337 7.50009 10.2337C11.0876 10.2337 13.3022 11.1384 13.3943 11.1772L13.045 12.0213Z" fill="#5A3729"/>
</g>
<defs>
<clipPath id="clip0_1_351">
<rect width="15" height="15" fill="white"/>
</clipPath>
</defs>
</svg>
