<svg width="200" height="200" viewBox="0 0 200 200" fill="none" xmlns="http://www.w3.org/2000/svg">
<g clip-path="url(#clip0_1_164)">
<mask id="mask0_1_164" style="mask-type:luminance" maskUnits="userSpaceOnUse" x="0" y="0" width="200" height="200">
<path d="M100 200C155.228 200 200 155.228 200 100C200 44.7715 155.228 0 100 0C44.7715 0 0 44.7715 0 100C0 155.228 44.7715 200 100 200Z" fill="white"/>
</mask>
<g mask="url(#mask0_1_164)">
<path d="M204.209 150.298H-6.96069V158.701H204.209V150.298Z" fill="#DF9F69"/>
<path d="M204.209 -23.9919H-6.96069V150.298H204.209V-23.9919Z" fill="#84DBE5"/>
<path d="M-6.96069 150.298C-6.96069 150.298 -6.82136 128.585 4.73464 111.755C12.4053 100.585 24.4166 91.5093 40.4773 89.3007C53.0873 87.566 66.048 91.4167 75.598 99.7227C85.0193 107.917 90.088 113.256 97.0386 113.631C104.393 114.027 109.109 110.417 114.528 104.678C120.104 98.772 131.285 79.2713 153.637 79.2673C177.459 79.2633 190.569 90.8473 199.051 113.302C205.813 131.205 204.208 150.298 204.208 150.298H-6.96069Z" fill="#007E6E"/>
<path d="M204.209 158.701H-6.96069V266.496H204.209V158.701Z" fill="#68B6E2"/>
<path d="M66.2946 42.1143C70.0966 39.5003 75.8653 28.9516 90.486 30.9576C108.155 33.3816 105.959 60.9003 82.476 61.8596C61.5886 62.7129 56.0426 59.0829 42.1453 66.1823C35.616 69.5176 25.304 72.6429 18.028 70.3936C10.856 68.1762 5.54329 57.4889 12.6806 49.8129C25.362 36.1756 42.9233 46.1276 49.292 47.0296C55.662 47.9316 62.4926 44.7283 66.2946 42.1143Z" fill="white"/>
<path d="M35.0039 48.0735C35.0039 48.0735 36.9312 39.3175 41.8586 33.4375C45.6552 28.9068 58.7686 25.2695 65.9399 28.5121C75.5686 32.8661 78.0286 39.5315 78.0286 39.5315C78.0286 39.5315 77.9386 47.4575 60.0086 51.1415C42.0786 54.8255 35.0039 48.0735 35.0039 48.0735Z" fill="white"/>
<path d="M138.151 55.6408C139.815 53.1868 143.195 49.8508 149.093 48.5402C156.316 46.9355 159.587 49.7115 159.587 49.7115C159.587 49.7115 160.761 45.2668 167.998 43.1168C172.915 41.6562 177.779 42.7968 180.292 43.8728C181.517 44.3968 181.319 44.8408 179.973 44.8855C176.915 44.9855 171.567 45.8842 169.555 47.3375C166.658 49.4302 165.803 50.8582 164.953 53.0308C163.928 55.6495 159.221 56.4002 156.835 55.2855C154.829 54.3488 154.582 52.6388 149.676 52.8308C146.03 52.9735 141.745 54.8102 139.053 56.5488C138.041 57.2028 137.163 57.0975 138.151 55.6408Z" fill="white"/>
<path d="M142.521 54.7001C141.993 54.5735 141.389 54.3648 141.082 54.0408C140.8 53.7421 140.681 53.2555 140.631 52.8135C139.567 53.7801 138.744 54.7661 138.151 55.6408C137.163 57.0981 138.041 57.2035 139.054 56.5495C140.033 55.9168 141.227 55.2728 142.521 54.7001Z" fill="#32280F"/>
<path d="M180.293 43.8728C179.188 43.4002 177.614 42.9275 175.796 42.6555C176.203 43.0642 176.633 43.6002 176.661 44.0729C176.687 44.5069 176.415 44.9422 176.126 45.2835C177.527 45.0595 178.895 44.9202 179.974 44.8855C181.32 44.8409 181.517 44.3968 180.293 43.8728Z" fill="#32280F"/>
</g>
</g>
<defs>
<clipPath id="clip0_1_164">
<rect width="200" height="200" fill="white"/>
</clipPath>
</defs>
</svg>
