<svg width="220" height="13" viewBox="0 0 220 13" fill="none" xmlns="http://www.w3.org/2000/svg">
<g clip-path="url(#clip0_1_323)">
<path d="M6.06012 11.7771H1.87814C1.6588 11.7771 1.56288 11.8743 1.56288 12.0967V12.2357C1.56288 12.6249 1.42582 12.6249 0.78144 12.6249C0.19184 12.6249 0 12.6249 0 12.2497C0 11.666 0.04114 11.0821 0.04114 10.5123V3.52082C0.04114 3.07632 0.01386 2.64519 0.01386 2.20046C0.01386 1.64444 0.2332 1.47783 0.7678 1.47783C1.16534 1.47783 1.5631 1.50549 1.97428 1.50549H5.97762C6.37516 1.50549 6.77292 1.47783 7.17046 1.47783C7.69164 1.47783 7.9244 1.61678 7.9244 2.18686C7.9244 2.63136 7.89734 3.07632 7.89734 3.52105V10.4848C7.89734 11.0685 7.93826 11.6384 7.93826 12.2221C7.93826 12.6113 7.77392 12.5974 7.15682 12.5974C6.54016 12.5974 6.37538 12.5974 6.37538 12.2221C6.37538 12.1804 6.37538 12.1386 6.38924 12.0972C6.37516 11.8746 6.27924 11.7771 6.06012 11.7771ZM6.03262 5.85599C6.26538 5.82834 6.38902 5.70299 6.41652 5.4668V3.24292C6.38902 3.00673 6.2656 2.88161 6.03262 2.85373H1.90586C1.67266 2.88161 1.54924 3.00651 1.52196 3.24292V5.4668C1.54924 5.70299 1.67288 5.82834 1.90586 5.85599H6.03262ZM1.52196 10.0118C1.54924 10.248 1.67288 10.3733 1.90586 10.401H6.03284C6.2656 10.3733 6.38924 10.248 6.41674 10.0118V7.56533C6.38924 7.32936 6.26582 7.20401 6.03284 7.17613H1.90586C1.67288 7.20401 1.54924 7.32913 1.52196 7.56533V10.0118Z" fill="#5A3729"/>
<path d="M17.9485 5.89748C17.8937 5.89748 17.8662 5.95301 17.8662 6.00877V8.78867C17.8662 9.06657 17.976 9.17787 18.2363 9.17787H18.4281C18.8534 9.17787 19.278 9.14999 19.7032 9.14999C20.0871 9.14999 20.0596 9.33087 20.0596 9.84496C20.0596 10.3176 20.0871 10.5259 19.7171 10.5259C19.2918 10.5259 18.8534 10.4982 18.4283 10.4982H18.2365C17.9899 10.4982 17.8664 10.5955 17.8664 10.8598C17.8526 11.4156 17.8939 11.9718 17.8939 12.5417C17.8939 12.9726 17.743 12.9864 17.1396 12.9864C16.5365 12.9864 16.3856 12.9724 16.3856 12.5417C16.3856 11.9718 16.427 11.4156 16.4131 10.8598C16.4131 10.5957 16.2897 10.4982 16.0292 10.4982H15.8649C15.426 10.4982 15.0007 10.5259 14.5761 10.5259C14.2061 10.5259 14.2331 10.3176 14.2331 9.84496C14.2331 9.34447 14.2061 9.14999 14.5761 9.14999C15.0009 9.14999 15.426 9.17787 15.8649 9.17787H16.0292C16.3033 9.17787 16.4131 9.06657 16.4131 8.78867V5.95324C16.4131 5.8977 16.3856 5.85599 16.3308 5.85599C16.2895 5.85599 16.262 5.88365 16.2486 5.91153C15.1516 7.91304 14.0822 9.30321 12.3957 10.8181C12.2723 10.9291 12.0666 11.11 11.902 11.11C11.614 11.11 10.9969 10.4427 10.9969 10.1788C10.9969 10.0258 11.1756 9.90094 11.2849 9.81731C12.9439 8.56631 14.3975 6.85675 15.371 4.99419C15.3844 4.95271 15.398 4.91078 15.398 4.86929C15.398 4.67481 15.2062 4.66098 15.1514 4.66098H13.1358C12.6012 4.66098 12.0664 4.68863 11.532 4.68863C11.189 4.68863 11.2029 4.5218 11.2029 4.02131C11.2029 3.49317 11.189 3.32634 11.532 3.32634C12.0666 3.32634 12.6014 3.36827 13.1358 3.36827H16.0292C16.3033 3.36827 16.4131 3.24315 16.4131 2.97907V1.83892C16.4131 1.47761 16.4131 1.13012 16.3718 0.838169C16.3579 0.796684 16.3579 0.754754 16.3579 0.713269C16.3579 0.54644 16.4677 0.518784 16.605 0.518784C16.8245 0.518784 17.6469 0.574319 17.9076 0.602198C18.0035 0.616027 18.1956 0.629855 18.1956 0.768805C18.1956 0.866048 18.1267 0.907978 18.0169 0.991393C17.8801 1.10269 17.8662 1.38059 17.8662 1.81149V2.97907C17.8662 3.24315 17.976 3.34039 18.2363 3.36827H21.1565C21.6914 3.36827 22.226 3.32634 22.7608 3.32634C23.1033 3.32634 23.0897 3.49317 23.0897 4.00726C23.0897 4.53563 23.1035 4.68841 22.7608 4.68841C22.226 4.68841 21.6914 4.66075 21.1565 4.66075H19.0591C18.9493 4.67458 18.8259 4.71629 18.8259 4.85524C18.8259 4.89672 18.8397 4.93865 18.8534 4.98014C19.8405 6.74523 21.3484 8.44119 22.9528 9.65025C23.131 9.77538 23.2954 9.87284 23.2954 10.0394C23.2954 10.3593 22.7746 11.0264 22.4455 11.0264C22.1439 11.0264 20.9647 9.83091 20.7044 9.55301C19.6759 8.46884 18.7852 7.25977 18.0446 5.95301C18.0169 5.92536 17.9899 5.89748 17.9485 5.89748Z" fill="#5A3729"/>
<path d="M26.9984 4.45801C27.1819 4.45801 28.5068 5.28659 28.7463 5.44382C29.1269 5.67243 29.8455 6.07233 29.8455 6.30094C29.8455 6.5581 29.282 7.4014 29 7.4014C28.9014 7.4014 28.7604 7.30148 28.6757 7.24416C27.8868 6.67274 27.2664 6.28689 26.435 5.80113C26.3365 5.74403 26.1954 5.68693 26.1954 5.55824C26.1954 5.32963 26.7309 4.45801 26.9984 4.45801ZM27.4637 10.5877C27.8443 10.5018 28.7463 10.1735 29.141 10.0163C30.5079 9.45889 31.6217 8.84465 32.6505 7.77297C33.792 6.55833 34.5106 5.01538 35.0603 3.45793C35.1164 3.31496 35.173 3.11512 35.3565 3.11512C35.5677 3.11512 36.4131 3.9011 36.4131 4.18658C36.4131 4.28672 36.3005 4.54388 36.2301 4.74372C36.2019 4.84386 36.1595 4.91523 36.1454 4.97233C35.582 6.38704 34.6232 7.92999 33.5384 9.01594C32.2276 10.3162 30.4377 11.2735 28.7182 11.9022C28.38 12.0309 28.3519 12.0592 28.1825 12.3164C28.1541 12.3594 28.098 12.4023 28.0415 12.4023C27.8868 12.4023 27.7737 12.088 27.6892 11.9163C27.5341 11.5735 27.379 11.2304 27.2244 10.8876C27.2103 10.8591 27.1962 10.802 27.1962 10.759C27.196 10.6448 27.379 10.6162 27.4637 10.5877ZM30.1697 2.24328C30.4659 2.45762 30.9732 2.8147 31.2268 3.02903C31.3113 3.10063 31.3815 3.172 31.3815 3.27214C31.3815 3.5293 30.7897 4.32955 30.536 4.32955C30.4234 4.32955 30.2683 4.21513 30.1838 4.14376C29.5214 3.60067 28.8306 3.08635 28.1121 2.62913C28.0135 2.57203 27.8725 2.48617 27.8725 2.3577C27.8725 2.15764 28.4784 1.37189 28.732 1.37189C28.9012 1.37189 29.5775 1.84338 29.9581 2.10054C30.0571 2.15764 30.1273 2.21473 30.1697 2.24328Z" fill="#5A3729"/>
<path d="M44.6998 4.74371C45.179 4.74371 45.6863 4.71516 46.039 4.71516C46.4196 4.71516 46.4196 4.94377 46.4196 5.47259C46.4196 5.87249 46.4055 6.04378 46.039 6.04378C45.5877 6.04378 45.137 6.02973 44.6998 6.02973H43.9388C43.7133 6.02973 43.516 6.21552 43.516 6.4439V9.18723C43.516 9.41584 43.6995 9.60162 43.9388 9.60162H45.4467C45.912 9.60162 46.3912 9.57307 46.8701 9.57307C47.2224 9.57307 47.2083 9.84451 47.2083 10.2877C47.2083 10.659 47.1944 10.9162 46.842 10.9162C46.3771 10.9162 45.912 10.8876 45.4467 10.8876H40.3165C39.8517 10.8876 39.3862 10.9162 38.9213 10.9162C38.555 10.9162 38.555 10.6448 38.555 10.2877C38.555 9.84451 38.5409 9.57307 38.8931 9.57307C39.358 9.57307 39.8517 9.60162 40.3165 9.60162H41.8244C42.064 9.60162 42.2473 9.41584 42.2473 9.18723V6.4439C42.2473 6.21529 42.0501 6.02973 41.8244 6.02973H41.0634C40.6267 6.02973 40.1755 6.04378 39.7247 6.04378C39.358 6.04378 39.3442 5.85821 39.3442 5.47259C39.3442 4.9295 39.3441 4.71516 39.7247 4.71516C40.1053 4.71516 40.542 4.74371 41.0634 4.74371H44.6998Z" fill="#5A3729"/>
<path d="M56.6223 2.38602C56.9184 2.38602 57.6092 2.38602 57.891 2.35747C57.9471 2.35747 58.1022 2.32892 58.1447 2.32892C58.4828 2.32892 59.0887 3.10039 59.0887 3.24336C59.0887 3.3861 58.9618 3.54334 58.8491 4.1578C58.37 6.9154 57.3694 8.81565 55.086 10.4445C54.2687 11.0159 53.3102 11.5447 52.38 11.902C52.239 11.9591 52.056 12.0307 51.9152 12.0307C51.577 12.0307 51.0697 11.0734 51.0697 10.8448C51.0697 10.6878 51.1967 10.6448 51.3234 10.6162C52.5494 10.2877 53.8743 9.53047 54.8324 8.73045C56.073 7.68732 56.9325 6.17269 57.1437 4.55837C57.1578 4.4725 57.1719 4.30099 57.1719 4.21512C57.1719 3.94369 56.9323 3.91514 56.6786 3.91514H51.6754C51.0831 3.91514 50.5056 3.94369 49.9134 3.94369C49.4767 3.94369 49.4908 3.815 49.4908 3.17221C49.4908 2.51493 49.4767 2.35791 49.8714 2.35791C50.4773 2.35791 51.0831 2.38646 51.6895 2.38646H56.6223V2.38602Z" fill="#5A3729"/>
<path d="M65.9237 6.64419C65.9237 7.58718 65.3037 8.37293 64.2323 8.37293C63.3585 8.37293 62.696 7.75847 62.696 6.87258C62.696 5.95814 63.2878 5.14362 64.4156 5.14362C65.261 5.14384 65.9237 5.7438 65.9237 6.64419Z" fill="#5A3729"/>
<path d="M75.8874 10.5306C75.8874 11.1591 75.9156 11.7878 75.9156 12.4023C75.9156 12.7881 75.7321 12.8309 75.2107 12.8309C74.4356 12.8309 74.2946 12.7883 74.2946 12.4168C74.2946 11.8023 74.323 11.1881 74.323 10.5736V6.68679C74.323 6.60115 74.3655 6.28689 74.0975 6.28689C73.9565 6.28689 73.6604 6.52978 73.5477 6.61542C73.1251 6.92968 70.8842 8.4443 70.5177 8.4443C70.2781 8.4443 69.4181 7.57268 69.4181 7.30125C69.4181 7.15829 69.545 7.10097 69.6438 7.05814C71.4898 6.27217 73.7591 4.67212 75.1828 3.27169C75.9156 2.54304 76.578 1.74279 77.0994 0.856899C77.1414 0.785528 77.2263 0.642563 77.3249 0.642563C77.4235 0.642563 77.8606 0.942544 78.283 1.22847C78.4381 1.32862 78.8328 1.5715 78.8328 1.74279C78.8328 1.82866 78.7624 1.85698 78.6918 1.88576C78.382 1.97162 78.3395 1.98568 78.1424 2.22878C77.4659 3.05736 76.9584 3.61472 76.2115 4.37192C75.9998 4.58626 75.8872 4.6864 75.8872 5.01493V10.5306H75.8874Z" fill="#5A3729"/>
<path d="M92.151 5.20115C92.151 5.44404 91.5872 6.00118 91.4037 6.18696C89.1205 8.57321 86.7247 10.1737 83.751 11.5737C83.2857 11.8023 83.2716 11.8166 83.1587 12.0595C83.1308 12.1168 83.0883 12.1453 83.0177 12.1453C82.8631 12.1453 82.5669 11.5739 82.4684 11.4022C82.3837 11.2592 82.0455 10.688 82.0455 10.5451C82.0455 10.3878 82.2992 10.359 82.4827 10.3022C85.5972 9.37346 89.1207 6.67273 91.1223 4.08665C91.1784 4.01528 91.2629 3.92964 91.3619 3.92964C91.6435 3.92941 92.151 4.98659 92.151 5.20115ZM84.8785 2.84346C85.062 2.97215 85.738 3.44342 85.738 3.65776C85.738 3.98629 85.0756 4.75798 84.8081 4.75798C84.695 4.75798 84.4273 4.54387 84.2442 4.37214C83.8495 4.01506 82.8774 3.35778 82.3696 3.0433C82.257 2.97193 82.1441 2.90033 82.1441 2.77186C82.1441 2.55775 82.708 1.64331 83.032 1.64331C83.258 1.64309 84.6107 2.64317 84.8785 2.84346Z" fill="#5A3729"/>
<path d="M99.1831 6.64419C99.1831 7.58718 98.5631 8.37293 97.4917 8.37293C96.6179 8.37293 95.9554 7.75847 95.9554 6.87258C95.9554 5.95814 96.5472 5.14362 97.675 5.14362C98.5206 5.14384 99.1831 5.7438 99.1831 6.64419Z" fill="#5A3729"/>
<path d="M105.948 9.08731C105.948 9.44439 105.976 9.67322 106.23 9.67322C106.399 9.67322 107.047 9.37324 107.385 9.216C109.302 8.31584 111.303 6.97272 112.797 5.45832C112.882 5.37245 113.009 5.22971 113.135 5.22971C113.361 5.22971 113.84 6.1727 113.84 6.45841C113.84 6.55833 113.756 6.64442 113.685 6.71557C113.375 7.03005 113.037 7.31575 112.699 7.60146C110.838 9.15913 108.71 10.3591 106.497 11.3165C106.328 11.3879 106.159 11.4595 106.004 11.5452C105.905 11.6025 105.764 11.6881 105.652 11.6881C105.483 11.6881 104.707 11.2737 104.538 11.1595C104.369 11.0308 104.355 10.9024 104.355 10.6595C104.355 10.1737 104.383 9.64512 104.383 9.11631V3.30047C104.383 2.98643 104.383 2.67195 104.369 2.42907C104.355 2.32915 104.327 2.02895 104.327 1.95758C104.327 1.87171 104.369 1.78629 104.482 1.78629C104.538 1.78629 104.693 1.81483 104.778 1.82911C105.003 1.85766 105.708 1.97207 105.919 2.02917C106.046 2.05772 106.216 2.07222 106.216 2.21496C106.216 2.30083 106.145 2.34365 106.089 2.40074C105.962 2.51494 105.962 2.68667 105.962 2.84391C105.948 3.05803 105.948 3.28686 105.948 3.51547V9.08731Z" fill="#5A3729"/>
<path d="M116.63 4.58648C116.827 4.58648 118.321 5.52947 118.603 5.70098C119.068 6.00096 119.491 6.2153 119.491 6.42963C119.491 6.64419 118.927 7.51559 118.631 7.51559C118.533 7.51559 118.406 7.41567 118.321 7.35835C117.602 6.84403 116.813 6.32971 116.038 5.90104C115.939 5.85822 115.827 5.78663 115.827 5.67243C115.826 5.44382 116.348 4.58648 116.63 4.58648ZM125.946 4.51511C125.946 4.65807 125.706 5.24376 125.636 5.41527C125.1 6.70107 124.156 8.14432 123.169 9.13036C121.859 10.4306 120.069 11.3879 118.349 12.0307C118.166 12.1021 117.997 12.1449 117.884 12.3307C117.828 12.402 117.772 12.5307 117.673 12.5307C117.532 12.5307 117.419 12.2736 117.377 12.1594C117.194 11.7735 117.024 11.3879 116.856 11.0018C116.842 10.9733 116.827 10.9162 116.827 10.8876C116.827 10.7734 117.01 10.7306 117.095 10.7164C117.532 10.6022 118.335 10.3022 118.772 10.1304C120.154 9.57308 121.225 8.95884 122.281 7.88716C123.466 6.68679 124.058 5.42955 124.649 3.87232C124.692 3.74363 124.748 3.55784 124.931 3.55784C125.156 3.55762 125.946 4.25795 125.946 4.51511ZM120.139 2.61485C120.449 2.84346 121.013 3.20077 121.013 3.40083C121.013 3.65799 120.421 4.44396 120.153 4.44396C120.055 4.44396 119.9 4.31527 119.815 4.25817C119.153 3.71508 118.476 3.21504 117.758 2.75782C117.659 2.68645 117.504 2.61485 117.504 2.48639C117.504 2.25778 118.124 1.48608 118.363 1.48608C118.574 1.48585 119.885 2.42907 120.139 2.61485ZM123.099 1.2287C123.211 1.2287 123.832 1.74301 124.001 1.88598C124.198 2.05749 124.565 2.37197 124.565 2.48616C124.565 2.7005 124.127 3.20054 123.944 3.20054C123.86 3.20054 123.719 3.02903 123.606 2.92911C123.282 2.61485 122.944 2.3432 122.606 2.05771C122.549 2.01467 122.479 1.95757 122.479 1.8862C122.479 1.71469 122.944 1.2287 123.099 1.2287ZM124.353 0C124.508 0 125.833 1.07146 125.833 1.25747C125.833 1.47158 125.396 1.97185 125.213 1.97185C125.142 1.97185 125.072 1.90048 125.029 1.85743C124.677 1.50035 124.283 1.1716 123.888 0.857344C123.831 0.800247 123.733 0.74315 123.733 0.657282C123.733 0.500266 124.198 0 124.353 0Z" fill="#5A3729"/>
<path d="M137.065 5.3865C137.657 5.3865 138.249 5.3439 138.841 5.3439C139.25 5.3439 139.278 5.41527 139.278 6.1011C139.278 6.68679 139.25 6.88708 138.884 6.88708C138.277 6.88708 137.671 6.85853 137.065 6.85853H135.219C134.824 6.85853 134.824 7.2156 134.768 7.51581C134.627 8.4017 134.303 9.34469 133.838 10.1019C133.161 11.2023 132.062 11.9308 130.906 12.431C130.751 12.5024 130.399 12.6596 130.244 12.6596C129.934 12.6596 129.173 11.7164 129.173 11.4878C129.173 11.3165 129.384 11.2878 129.553 11.2307C130.188 11.0449 130.766 10.8448 131.329 10.4875C132.231 9.93038 132.851 8.91579 133.105 7.88716C133.133 7.75847 133.218 7.30147 133.218 7.20133C133.218 7.00127 133.077 6.8583 132.894 6.8583H130.033C129.441 6.8583 128.807 6.90135 128.257 6.90135C127.876 6.90135 127.891 6.62992 127.891 6.08683C127.891 5.55824 127.905 5.3439 128.243 5.3439C128.736 5.3439 129.413 5.3865 130.033 5.3865H137.065ZM134.895 1.64309C135.515 1.64309 136.191 1.60005 136.671 1.60005C137.093 1.60005 137.065 1.88598 137.065 2.45761C137.065 2.94338 137.065 3.14344 136.685 3.14344C136.092 3.14344 135.487 3.1149 134.895 3.1149H131.893C131.3 3.1149 130.709 3.14344 130.103 3.14344C129.708 3.14344 129.736 2.91483 129.736 2.40029C129.736 1.88575 129.708 1.60005 130.131 1.60005C130.582 1.60005 131.259 1.64309 131.893 1.64309H134.895ZM139.503 3.08635C139.503 3.30046 138.982 3.71486 138.799 3.71486C138.728 3.71486 138.63 3.58617 138.503 3.42893C138.235 3.05758 137.939 2.71477 137.643 2.37175C137.587 2.32892 137.516 2.25733 137.516 2.18596C137.516 2.02872 138.066 1.6286 138.221 1.6286C138.376 1.6286 139.503 2.90034 139.503 3.08635ZM140.095 1.04313C140.208 1.17182 140.659 1.65759 140.659 1.80055C140.659 2.00039 140.152 2.42907 139.968 2.42907C139.87 2.42907 139.771 2.27183 139.616 2.07199C139.391 1.77178 139.038 1.38616 138.784 1.1145C138.728 1.0574 138.672 1.00031 138.672 0.928714C138.672 0.757423 139.207 0.3573 139.362 0.3573C139.489 0.3573 139.982 0.914439 140.095 1.04313Z" fill="#5A3729"/>
<path d="M152.187 5.20115C152.187 5.44404 151.623 6.00118 151.44 6.18696C149.157 8.57321 146.761 10.1737 143.787 11.5737C143.322 11.8023 143.308 11.8166 143.195 12.0595C143.167 12.1168 143.125 12.1453 143.054 12.1453C142.899 12.1453 142.603 11.5739 142.504 11.4022C142.42 11.2592 142.082 10.688 142.082 10.5451C142.082 10.3878 142.335 10.359 142.519 10.3022C145.633 9.37346 149.157 6.67273 151.158 4.08665C151.214 4.01528 151.299 3.92964 151.398 3.92964C151.68 3.92941 152.187 4.98659 152.187 5.20115ZM144.914 2.84346C145.098 2.97215 145.774 3.44342 145.774 3.65776C145.774 3.98629 145.112 4.75798 144.844 4.75798C144.731 4.75798 144.463 4.54387 144.28 4.37214C143.886 4.01506 142.913 3.35778 142.406 3.0433C142.293 2.97193 142.18 2.90033 142.18 2.77186C142.18 2.55775 142.744 1.64331 143.068 1.64331C143.294 1.64309 144.647 2.64317 144.914 2.84346Z" fill="#5A3729"/>
<path d="M161.122 2.44334C161.347 2.44334 161.587 2.44334 161.728 2.41479C161.812 2.41479 161.953 2.38625 162.038 2.38625C162.333 2.38625 162.94 3.17222 162.94 3.35801C162.94 3.42938 162.785 3.65799 162.63 3.91515C162.545 4.04384 162.461 4.18658 162.404 4.28672C161.84 5.24398 161.277 6.14415 160.572 7.00149C160.501 7.08714 160.459 7.15873 160.459 7.27293C160.459 7.44422 160.543 7.53009 160.67 7.61573C161.445 8.13005 162.347 8.83038 163.052 9.45889C163.39 9.75909 163.743 10.0874 164.067 10.4306C164.123 10.4875 164.165 10.5448 164.165 10.6305C164.165 10.9307 163.39 11.7735 163.094 11.7735C162.939 11.7735 162.841 11.6734 162.742 11.5592C161.727 10.3305 160.882 9.64467 159.627 8.73023C159.514 8.64437 159.43 8.60154 159.303 8.60154C159.119 8.60154 158.993 8.74428 158.88 8.84443C157.837 9.83024 156.625 10.6876 155.357 11.3449C155.23 11.4162 154.863 11.6161 154.736 11.6161C154.441 11.6161 153.792 10.6588 153.792 10.4017C153.792 10.2301 153.961 10.1588 154.088 10.1157C156.583 9.14419 158.951 6.958 160.374 4.70045C160.445 4.58626 160.614 4.34315 160.614 4.21446C160.614 4.00034 160.416 3.97157 160.205 3.97157H157.288C156.682 3.97157 156.076 4.00012 155.47 4.00012C155.089 4.00012 155.117 3.78579 155.117 3.1285C155.117 2.62846 155.103 2.41413 155.456 2.41413C156.062 2.41413 156.668 2.44267 157.288 2.44267H161.122V2.44334Z" fill="#5A3729"/>
<path d="M173.215 2.03341H175.943C176.519 2.03341 177.081 1.99192 177.602 1.99192C177.959 1.99192 177.931 2.15853 177.931 2.67284C177.931 3.18694 177.958 3.35377 177.602 3.35377C177.054 3.35377 176.505 3.32589 175.943 3.32589H168.622C168.361 3.32589 168.252 3.43718 168.252 3.71508V5.95301C168.252 7.91304 168.019 10.2201 167.21 12.0271C166.922 12.6804 166.799 12.8334 166.593 12.8334C166.236 12.8334 165.564 12.4859 165.564 12.2078C165.564 12.1384 165.647 12.0133 165.674 11.9578C166.634 10.3176 166.84 7.96857 166.84 6.10601V3.93767C166.84 3.50655 166.813 3.0897 166.813 2.65902C166.813 2.11704 167.1 2.00575 167.58 2.00575C168.033 2.00575 168.485 2.03341 168.938 2.03341H170.967C171.227 2.03341 171.351 1.92233 171.351 1.65826C171.365 1.35248 171.323 0.991166 171.296 0.685386C171.296 0.643456 171.282 0.588143 171.282 0.546213C171.282 0.393434 171.405 0.365555 171.543 0.365555C171.721 0.365555 172.584 0.44897 172.804 0.462798C172.927 0.476849 173.16 0.490677 173.16 0.657284C173.16 0.754527 173.092 0.782406 172.996 0.865821C172.831 0.990943 172.831 1.1716 172.845 1.65804C172.845 1.92233 172.968 2.03341 173.215 2.03341ZM170.335 6.64821C170.445 6.67586 170.651 6.71779 170.651 6.87057C170.651 6.95421 170.555 7.0374 170.487 7.07911C170.349 7.1904 170.349 7.2736 170.336 7.45448C170.199 8.69143 169.925 10.0535 169.499 11.2211C169.431 11.3879 169.349 11.5964 169.143 11.5964C168.924 11.5964 168.252 11.402 168.252 11.1238C168.252 11.0266 168.32 10.8598 168.362 10.7487C168.828 9.45599 169.033 8.13562 169.157 6.7595C169.17 6.6346 169.198 6.48138 169.362 6.48138C169.499 6.48138 170.157 6.6065 170.335 6.64821ZM174.161 11.2349C174.312 11.2349 174.654 11.2349 174.778 11.1236C174.97 10.943 175.134 10.0256 175.162 9.73366C175.189 9.45576 175.217 9.33064 175.518 9.33064C175.82 9.33064 176.505 9.44171 176.505 9.84474C176.505 10.3591 176.231 11.3598 176.025 11.8324C175.669 12.6666 175.176 12.6246 174.394 12.6246H172.598C171.528 12.6246 171.007 12.5274 171.007 11.4292C171.007 11.0819 171.035 10.7342 171.035 10.3869V7.34318C171.035 6.89845 171.035 6.35626 170.994 5.91153C170.994 5.86982 170.98 5.81428 170.98 5.77258C170.98 5.60575 171.076 5.56404 171.213 5.56404C171.391 5.56404 172.241 5.63362 172.46 5.64745C172.556 5.66128 172.707 5.68894 172.707 5.82811C172.707 5.92535 172.625 5.96706 172.556 6.0226C172.378 6.16155 172.364 6.56457 172.364 7.00952V10.5816C172.364 11.1515 172.46 11.2347 173.009 11.2347L174.161 11.2349ZM173.695 7.46808C173.461 7.46808 173.393 7.30148 173.325 7.09294C173.023 6.09218 172.598 5.13314 172.118 4.18792C172.077 4.10428 172.049 4.04897 172.049 3.95172C172.049 3.67382 172.721 3.46529 172.941 3.46529C173.064 3.46529 173.146 3.5487 173.215 3.65977C173.42 3.97938 173.845 4.91055 174.01 5.29974C174.133 5.57787 174.613 6.75928 174.613 6.99547C174.613 7.34318 173.804 7.46808 173.695 7.46808ZM176.683 6.07813C177.04 6.68969 177.396 7.5932 177.643 8.27435C177.753 8.58013 178.219 9.91455 178.219 10.1648C178.219 10.5261 177.424 10.6932 177.3 10.6932C177.067 10.6932 177.04 10.4846 176.999 10.3037C176.67 9.03891 176.163 7.82962 175.614 6.66226C175.573 6.57862 175.491 6.41201 175.491 6.32882C175.491 6.07835 176.176 5.85621 176.354 5.85621C176.505 5.85599 176.615 5.95323 176.683 6.07813Z" fill="#5A3729"/>
<path d="M181.566 8.58012C181.552 8.49671 181.539 8.32988 181.347 8.32988C181.305 8.32988 181.278 8.34393 181.237 8.35754C181.1 8.4133 181.004 8.46883 180.921 8.49671C180.647 8.608 180.633 8.62161 180.579 8.80249C180.551 8.87185 180.497 8.95527 180.414 8.95527C180.277 8.95527 180.195 8.66332 180.058 8.20476C180.017 8.05176 179.962 7.94069 179.907 7.70427C179.893 7.64873 179.879 7.59297 179.879 7.53744C179.879 7.38444 180.071 7.35678 180.195 7.31507C180.51 7.23166 180.921 7.051 181.237 6.91205C181.497 6.80076 181.566 6.68946 181.566 6.38368V4.54923C181.566 4.29876 181.47 4.17386 181.209 4.16003C180.935 4.17386 180.579 4.20151 180.346 4.20151C180.03 4.20151 180.044 3.9932 180.044 3.53442C180.044 3.04798 180.03 2.8535 180.346 2.8535C180.62 2.8535 180.908 2.88138 181.182 2.88138C181.456 2.88138 181.566 2.77008 181.566 2.49196V1.83891C181.566 1.63038 181.566 1.42206 181.552 1.21352C181.552 1.07457 181.511 0.768794 181.511 0.685379C181.511 0.504722 181.62 0.476842 181.771 0.476842C181.963 0.476842 182.649 0.532378 182.868 0.546206C182.991 0.560257 183.211 0.574085 183.211 0.740692C183.211 0.865814 183.115 0.893693 183.033 0.96328C182.895 1.06052 182.882 1.26906 182.882 1.65826V2.49218C182.882 2.75625 182.978 2.8816 183.238 2.8816C183.499 2.8816 183.759 2.85372 184.02 2.85372C184.335 2.85372 184.308 3.0482 184.308 3.52081C184.308 4.00725 184.321 4.20174 184.02 4.20174C184.006 4.20174 183.307 4.16025 183.252 4.16025C182.978 4.16025 182.882 4.31303 182.882 4.54945V5.77257C182.896 5.89747 182.937 6.02281 183.087 6.02281C183.129 6.02281 183.156 6.00876 183.197 5.99493C183.321 5.92557 183.718 5.70298 183.828 5.70298C184.116 5.70298 184.171 6.3703 184.171 6.59244C184.171 6.85652 184.075 6.91227 183.581 7.19017C183.471 7.24571 183.348 7.3153 183.197 7.39871C182.95 7.55171 182.882 7.67661 182.882 7.96856V10.4982C182.882 10.8181 182.909 11.1236 182.909 11.4434C182.909 12.7779 181.908 12.8751 180.853 12.8751C180.427 12.8751 180.249 12.764 180.249 11.8326C180.249 11.61 180.291 11.4434 180.537 11.4434C180.62 11.4434 180.812 11.4713 180.99 11.4713C181.58 11.4713 181.566 11.2768 181.566 10.5678V8.58012H181.566ZM190.341 2.07533C190.464 2.07533 190.916 2.25599 191.19 2.36728C191.245 2.39494 191.3 2.42282 191.341 2.43664C191.478 2.49218 191.684 2.57582 191.684 2.68711C191.684 2.79818 191.561 2.81201 191.478 2.82584C191.383 2.83989 191.328 2.86777 191.287 2.95096C191.095 3.34016 190.903 3.72935 190.683 4.11855C190.656 4.16048 190.642 4.18813 190.642 4.24367C190.642 4.38262 190.738 4.42433 190.862 4.43815C191.026 4.4241 191.205 4.41028 191.383 4.41028C191.671 4.41028 191.657 4.66074 191.657 5.03589C191.657 5.35572 191.657 5.5502 191.383 5.5502C190.889 5.5502 190.382 5.52232 189.888 5.52232H187.901C187.667 5.52232 187.571 5.60574 187.531 5.8281C187.517 5.88364 187.517 5.9394 187.517 5.99471C187.517 6.20325 187.667 6.27261 187.846 6.27261H190.355C190.876 6.27261 191.397 6.24518 191.931 6.24518C192.233 6.24518 192.219 6.46754 192.219 6.85674C192.219 7.20423 192.219 7.38488 191.931 7.38488C191.397 7.38488 190.876 7.35723 190.355 7.35723H187.544C187.311 7.35723 187.201 7.42681 187.133 7.64918L187.119 7.69089C187.119 7.71877 187.105 7.76025 187.105 7.80218C187.105 7.98284 187.242 8.03837 187.393 8.0522H189.244C189.601 8.0522 189.957 8.03837 190.327 8.03837C190.601 8.03837 190.766 8.09391 190.944 8.3165C191.054 8.45522 191.177 8.66376 191.177 8.84442C191.177 9.27555 190.3 10.304 189.998 10.6374C189.957 10.6932 189.916 10.7487 189.916 10.8319C189.916 10.957 189.998 11.0128 190.08 11.0545C190.56 11.263 191.163 11.4715 191.671 11.5964C192.082 11.7077 192.15 11.7213 192.15 11.9022C192.15 12.2218 191.753 12.9028 191.465 12.9028C191.04 12.9028 189.436 12.1384 188.997 11.9022C188.901 11.8467 188.819 11.8186 188.709 11.8186C188.586 11.8186 188.49 11.8605 188.394 11.9022C187.969 12.1525 186.515 12.8613 186.077 12.8613C185.775 12.8613 185.405 12.069 185.405 11.8882C185.405 11.7075 185.597 11.6937 185.748 11.652C186.269 11.5269 186.831 11.3462 187.325 11.11C187.407 11.0545 187.475 10.9987 187.475 10.8876C187.475 10.804 187.434 10.7485 187.379 10.6932C187.119 10.4289 186.858 10.1369 186.639 9.83112C186.584 9.77559 186.543 9.72005 186.46 9.72005C186.365 9.72005 186.31 9.78964 186.269 9.859C185.734 10.8319 185.186 11.666 184.431 12.4723C184.336 12.5834 184.185 12.7364 184.034 12.7364C183.787 12.7364 183.116 12.208 183.116 11.9859C183.116 11.8329 183.321 11.6524 183.417 11.5411C184.541 10.3457 185.186 9.2896 185.707 7.71899C185.707 7.67706 185.721 7.6494 185.721 7.6077C185.721 7.44087 185.597 7.37128 185.447 7.35745C185.145 7.37128 184.843 7.38511 184.528 7.38511C184.226 7.38511 184.254 7.14891 184.254 6.77355C184.254 6.42628 184.254 6.24562 184.542 6.24562C184.885 6.24562 185.405 6.25945 185.776 6.27306C185.995 6.25923 186.091 6.17582 186.132 5.9675C186.146 5.89791 186.146 5.8426 186.146 5.8145C186.146 5.62001 186.009 5.5366 185.831 5.5366C185.529 5.5366 185.214 5.55065 184.912 5.55065C184.624 5.55065 184.638 5.31423 184.638 4.91121C184.638 4.61926 184.652 4.41072 184.912 4.41072C185.406 4.41072 185.899 4.4386 186.406 4.4386H188.737C189.025 4.4386 189.135 4.39667 189.299 4.14665C189.574 3.71552 189.971 2.82606 190.163 2.32557C190.217 2.17257 190.245 2.07533 190.341 2.07533ZM191.506 1.71379C191.451 1.71379 191.383 1.68613 191.341 1.67208C191.273 1.6442 191.19 1.61655 191.136 1.61655C191.081 1.61655 190.971 1.63038 190.916 1.6442C189.093 1.99191 186.913 2.26982 185.062 2.26982C184.774 2.26982 184.678 2.25576 184.568 1.94998C184.5 1.78338 184.472 1.6025 184.472 1.42184C184.472 1.10223 184.568 1.07435 184.815 1.07435H185.062C186.529 1.07435 189.216 0.907745 190.587 0.49067C190.655 0.462791 190.738 0.435135 190.806 0.435135C190.902 0.435135 191.026 0.588136 191.122 0.727087C191.177 0.810502 191.245 0.893916 191.3 0.977331C191.437 1.18587 191.643 1.46377 191.643 1.58889C191.643 1.65826 191.575 1.71379 191.506 1.71379ZM185.556 4.32686C185.295 4.32686 185.282 4.13237 185.199 3.84042C185.117 3.53464 185.007 3.25674 184.898 2.96479C184.871 2.92286 184.843 2.83967 184.843 2.79796C184.843 2.56177 185.652 2.45047 185.775 2.45047C185.995 2.45047 186.05 2.56177 186.269 3.18716C186.324 3.35398 186.474 3.81254 186.474 3.96577C186.474 4.22962 185.748 4.32686 185.556 4.32686ZM187.818 4.22962C187.585 4.22962 187.571 4.17408 187.475 3.72913C187.434 3.50654 187.365 3.18716 187.242 2.72837C187.228 2.70072 187.229 2.67284 187.229 2.64496C187.229 2.39471 187.969 2.31152 188.133 2.31152C188.421 2.31152 188.449 2.40877 188.613 3.13162C188.654 3.28462 188.75 3.75723 188.75 3.89618C188.75 4.16025 188.01 4.22962 187.818 4.22962ZM187.804 9.02508C187.708 9.03913 187.599 9.06679 187.599 9.19191C187.599 9.24744 187.626 9.28915 187.653 9.33086C187.9 9.60876 188.051 9.77559 188.339 10.0258C188.421 10.0954 188.49 10.1369 188.6 10.1369C188.723 10.1369 188.805 10.0814 188.888 9.99818C189.024 9.859 189.491 9.35874 189.491 9.17808C189.491 9.03913 189.367 9.02508 189.175 9.02508H187.804Z" fill="#5A3729"/>
<path d="M196.526 5.29996V10.4427C196.526 11.1236 196.553 11.805 196.553 12.4723C196.553 12.903 196.403 12.9168 195.895 12.9168C195.347 12.9168 195.224 12.9028 195.224 12.4859C195.224 11.805 195.251 11.1236 195.251 10.4427V5.29996C195.251 5.04994 195.169 4.9527 194.908 4.92482C194.744 4.92482 194.25 4.9527 194.113 4.9527C193.825 4.9527 193.839 4.75821 193.839 4.24367C193.839 3.75724 193.812 3.5487 194.113 3.5487C194.154 3.5487 194.826 3.57658 194.908 3.57658C195.169 3.56253 195.251 3.4374 195.251 3.20121V1.79743C195.251 1.43589 195.237 1.07458 195.21 0.810283C195.21 0.768575 195.196 0.71304 195.196 0.671332C195.196 0.532382 195.292 0.490675 195.416 0.490675C195.58 0.490675 196.307 0.574089 196.499 0.587918C196.608 0.601969 196.828 0.615574 196.828 0.782404C196.828 0.865818 196.759 0.907526 196.663 0.976889C196.526 1.10201 196.526 1.24096 196.526 1.46333C196.512 1.83847 196.526 2.21384 196.526 2.57538V3.20076C196.526 3.46484 196.636 3.57613 196.896 3.57613C197.198 3.57613 197.499 3.54825 197.787 3.54825C198.089 3.54825 198.061 3.75679 198.061 4.24323C198.061 4.74372 198.089 4.95225 197.787 4.95225C197.499 4.95225 197.198 4.91032 196.896 4.92437C196.636 4.9246 196.526 5.03589 196.526 5.29996ZM199.323 7.32935V7.51001C199.323 7.76003 199.419 7.85727 199.665 7.87133C199.967 7.85727 200.255 7.85727 200.543 7.85727C201.132 7.85727 201.283 8.06581 201.283 8.63589C201.283 9.44193 201.228 11.4296 200.968 12.1246C200.707 12.8196 199.994 12.8892 199.35 12.8892C198.788 12.8892 198.733 12.3887 198.733 11.9161C198.733 11.7494 198.747 11.5409 198.966 11.5409C199.021 11.5409 199.09 11.5409 199.145 11.555C199.254 11.569 199.364 11.5828 199.487 11.5828C199.803 11.5828 199.898 11.4854 199.953 11.1658C200.022 10.707 200.077 9.92882 200.077 9.45598C200.077 9.01148 199.885 9.06679 199.528 9.05296C199.295 9.05296 199.213 9.1366 199.172 9.35874C198.98 10.5263 198.541 11.7356 197.718 12.6113C197.65 12.6947 197.54 12.8057 197.417 12.8057C197.198 12.8057 196.649 12.3748 196.649 12.1248C196.649 11.9859 196.828 11.8329 196.91 11.7356C197.54 11.0547 197.842 10.3316 198.007 9.42833C198.007 9.40067 198.02 9.37279 198.02 9.34491C198.02 9.15043 197.869 9.08084 197.705 9.06701C197.623 9.08106 197.54 9.08106 197.458 9.08106C197.17 9.08106 197.17 8.92806 197.17 8.4695C197.17 7.96901 197.17 7.84412 197.472 7.84412C197.581 7.84412 197.691 7.85794 197.787 7.85794C198.034 7.84412 198.143 7.7607 198.143 7.51068V6.80165C198.143 6.63505 198.171 6.56546 198.349 6.56546C198.418 6.56546 198.527 6.57929 198.596 6.59312C198.692 6.60717 198.788 6.621 198.884 6.621C199.254 6.64865 199.638 6.6627 199.638 6.81548C199.638 6.91272 199.487 6.98209 199.432 7.02402C199.323 7.09294 199.337 7.21806 199.323 7.32935ZM202.367 2.93691C202.079 2.93691 201.969 3.0065 201.887 3.27057C201.53 4.32686 201.037 5.10503 200.159 5.77235C199.94 5.93918 199.35 6.32837 199.076 6.32837C198.747 6.32837 198.377 5.6334 198.377 5.42486C198.377 5.31357 198.487 5.25803 198.583 5.21633C199.57 4.79925 200.159 4.28516 200.584 3.28418C200.598 3.24247 200.612 3.21459 200.612 3.15928C200.612 2.93669 200.378 2.93669 200.324 2.93669C199.898 2.93669 199.46 2.96457 199.021 2.96457C198.719 2.96457 198.719 2.8254 198.719 2.35301C198.719 1.90828 198.706 1.74145 199.007 1.74145C199.46 1.74145 199.899 1.76933 200.338 1.76933H200.529C200.79 1.76933 200.899 1.67209 200.927 1.40779C200.927 1.19948 200.913 0.990941 200.913 0.782404C200.913 0.573866 200.927 0.476624 201.146 0.476624C201.311 0.476624 201.612 0.518331 201.79 0.532159C202.215 0.573866 202.503 0.573866 202.503 0.768352C202.503 0.879647 202.38 0.934959 202.284 1.00477C202.201 1.0603 202.174 1.29672 202.188 1.40779C202.215 1.65804 202.297 1.76933 202.544 1.76933H202.764C203.189 1.76933 203.628 1.74145 204.052 1.74145C204.629 1.74145 204.917 1.82487 204.917 2.47836C204.917 3.21482 204.807 5.02184 204.492 5.64745C204.149 6.31455 203.354 6.31455 202.695 6.31455C202.284 6.31455 201.873 6.3005 201.873 5.27208C201.873 5.0912 201.887 4.91055 202.106 4.91055C202.147 4.91055 202.229 4.9246 202.27 4.9246C202.435 4.93865 202.586 4.95248 202.75 4.95248C203.394 4.95248 203.463 4.86884 203.546 3.65977C203.6 2.92286 203.559 2.93691 202.901 2.93691H202.367ZM203.683 9.42811C203.422 11.3462 202.147 12.8751 201.846 12.8751C201.599 12.8751 201.105 12.4163 201.105 12.1525C201.105 12.0273 201.215 11.9299 201.297 11.8605C201.983 11.2073 202.367 10.3593 202.545 9.44193V9.35852C202.545 9.14998 202.394 9.09445 202.229 9.08062C202.133 9.09467 202.037 9.09467 201.941 9.09467C201.653 9.09467 201.653 8.96955 201.653 8.48311C201.653 8.02455 201.653 7.87155 201.941 7.87155H202.325C202.572 7.87155 202.682 7.78813 202.695 7.52428C202.695 7.3298 202.682 7.13509 202.682 6.94038C202.682 6.70419 202.709 6.64843 202.956 6.64843C203.093 6.64843 203.778 6.71802 203.93 6.74567C204.012 6.75972 204.19 6.78738 204.19 6.89867C204.19 7.00997 204.039 7.06528 203.957 7.12126C203.847 7.19063 203.861 7.30192 203.847 7.42704V7.52428C203.847 7.77431 203.957 7.8856 204.204 7.8856C204.505 7.8856 204.821 7.87155 205.136 7.87155C205.767 7.87155 205.904 8.06603 205.904 8.69165C205.904 9.52557 205.835 11.402 205.561 12.1386C205.315 12.8196 204.615 12.9309 203.971 12.9309C203.436 12.9309 203.272 12.6251 203.272 11.9997C203.272 11.8188 203.285 11.5688 203.518 11.5688C203.573 11.5688 203.628 11.5688 203.683 11.5828C203.82 11.5967 203.902 11.6103 204.039 11.6103C204.533 11.6103 204.601 11.4715 204.67 9.94242C204.711 9.08084 204.697 9.05296 204.122 9.06679C203.848 9.06657 203.752 9.14998 203.683 9.42811Z" fill="#5A3729"/>
<path d="M210.924 5.28592C210.91 5.20251 210.882 5.10526 210.773 5.10526C210.718 5.10526 210.69 5.11931 210.649 5.14719C210.279 5.43914 208.757 6.55097 208.36 6.55097C208.058 6.55097 207.62 5.856 207.62 5.56404C207.62 5.39721 207.811 5.32785 207.976 5.24444C209.895 4.2158 212.034 2.47836 213.117 0.546218C213.172 0.448975 213.254 0.323853 213.377 0.323853C213.528 0.323853 214.57 0.587925 214.79 0.643461C214.886 0.67134 214.996 0.726875 214.996 0.837947C214.996 0.97712 214.845 1.01883 214.735 1.04648C214.694 1.06053 214.666 1.08841 214.666 1.1299C214.666 1.15755 214.666 1.17161 214.68 1.18543C215.969 2.86734 217.656 4.24323 219.547 5.14675C219.863 5.29952 220 5.34123 220 5.50806C220 5.77213 219.63 6.57818 219.328 6.57818C218.931 6.57818 217.203 5.36911 216.805 5.07716C216.778 5.0495 216.751 5.03545 216.709 5.03545C216.6 5.03545 216.573 5.13269 216.559 5.21611V5.50806C216.559 5.85555 216.531 6.03643 216.271 6.03643C215.928 6.03643 215.407 6.00855 214.996 6.00855H212.487C212.062 6.00855 211.582 6.03643 211.198 6.03643C210.924 6.03643 210.924 5.78596 210.924 5.39699L210.924 5.28592ZM212.391 10.7764C212.363 10.8181 212.349 10.8457 212.349 10.9013C212.349 11.0402 212.445 11.0821 212.569 11.0821C213.638 11.0264 214.721 10.943 215.804 10.8317C215.914 10.8178 215.996 10.7761 215.996 10.6372C215.996 10.5259 215.941 10.4706 215.873 10.401C215.681 10.1648 215.269 9.65048 215.269 9.56706C215.269 9.33087 216.078 8.94145 216.311 8.94145C216.449 8.94145 216.545 9.02509 216.627 9.13616C216.983 9.56706 217.408 10.1367 217.724 10.5955C217.902 10.8457 218.848 12.194 218.848 12.3884C218.848 12.6525 217.97 13 217.751 13C217.587 13 217.518 12.8889 217.312 12.5555C217.271 12.4859 217.216 12.3887 217.148 12.2914C217.038 12.1105 216.928 11.9995 216.709 11.9995C216.668 11.9995 216.641 12.0133 216.613 12.0133C215.489 12.1246 214.378 12.2359 213.254 12.3331C212.103 12.4304 211.157 12.5138 209.841 12.611C209.717 12.6251 209.662 12.6668 209.58 12.8055C209.539 12.8613 209.498 12.9168 209.429 12.9168C209.278 12.9168 209.237 12.7223 209.141 12.4025C209.1 12.2914 208.922 11.5547 208.922 11.4434C208.922 11.249 209.018 11.2904 209.607 11.249L210.238 11.2073C210.526 11.1932 210.635 11.1236 210.772 10.8738C211.156 10.1929 211.472 9.51153 211.801 8.80272C211.815 8.76079 211.828 8.73314 211.828 8.6776C211.828 8.5246 211.705 8.48312 211.568 8.46906H210.485C209.923 8.46906 209.347 8.49694 208.785 8.49694C208.469 8.49694 208.483 8.2467 208.483 7.81602C208.483 7.35724 208.469 7.12105 208.785 7.12105C209.347 7.12105 209.923 7.1487 210.485 7.1487H216.956C217.532 7.1487 218.094 7.12105 218.67 7.12105C218.985 7.12105 218.971 7.37107 218.971 7.81602C218.971 8.24692 218.985 8.49694 218.67 8.49694C218.094 8.49694 217.532 8.46906 216.956 8.46906H213.542C213.501 8.46906 213.487 8.46906 213.487 8.49694C213.487 8.5246 213.515 8.5246 213.556 8.55248C213.666 8.60824 213.72 8.63612 213.72 8.71931C213.72 8.84421 213.597 8.87231 213.515 8.88614C213.364 8.91402 213.309 8.94168 213.241 9.08063C212.994 9.60877 212.665 10.2761 212.391 10.7764ZM213.762 2.21429C213.666 2.21429 213.611 2.26983 213.542 2.33919C212.898 3.13141 212.267 3.78468 211.499 4.46605C211.458 4.49348 211.444 4.53541 211.444 4.57712C211.444 4.67436 211.513 4.70202 211.582 4.71607C211.883 4.71607 212.185 4.73012 212.487 4.73012H214.996C215.311 4.73012 215.626 4.73012 215.955 4.71607C216.024 4.70202 216.106 4.67436 216.106 4.57712C216.106 4.53541 216.079 4.4937 216.051 4.46605C215.393 3.89597 214.543 2.99246 213.995 2.32536C213.94 2.256 213.858 2.21429 213.762 2.21429Z" fill="#5A3729"/>
</g>
<defs>
<clipPath id="clip0_1_323">
<rect width="220" height="13" fill="white"/>
</clipPath>
</defs>
</svg>
