<svg width="20" height="20" viewBox="0 0 20 20" fill="none" xmlns="http://www.w3.org/2000/svg">
<path fill-rule="evenodd" clip-rule="evenodd" d="M15.7143 10.9524H10.9524V15.7143C10.9524 16.2381 10.5238 16.6667 10 16.6667C9.47623 16.6667 9.04766 16.2381 9.04766 15.7143V10.9524H4.28575C3.76195 10.9524 3.33337 10.5238 3.33337 10C3.33337 9.47619 3.76195 9.04762 4.28575 9.04762H9.04766V4.28572C9.04766 3.76191 9.47623 3.33334 10 3.33334C10.5238 3.33334 10.9524 3.76191 10.9524 4.28572V9.04762H15.7143C16.2381 9.04762 16.6667 9.47619 16.6667 10C16.6667 10.5238 16.2381 10.9524 15.7143 10.9524Z" fill="#3C4043"/>
</svg>
